<svg width="240" height="240" viewBox="0 0 240 240" fill="none" xmlns="http://www.w3.org/2000/svg">
  <defs>
    <linearGradient id="bg" x1="24" y1="16" x2="212" y2="220" gradientUnits="userSpaceOnUse">
      <stop stop-color="#EEF5FF"/>
      <stop offset="1" stop-color="#DDEAFF"/>
    </linearGradient>
    <linearGradient id="stroke" x1="52" y1="52" x2="188" y2="188" gradientUnits="userSpaceOnUse">
      <stop stop-color="#5B8DEF"/>
      <stop offset="1" stop-color="#2F65D8"/>
    </linearGradient>
  </defs>

  <rect x="18" y="18" width="204" height="204" rx="56" fill="url(#bg)"/>

  <path d="M67 120C67 89.6243 91.6243 65 122 65H148C157.389 65 165 72.6112 165 82V146C165 155.389 157.389 163 148 163H108L89 179V163C76.2975 163 67 153.703 67 141V120Z" fill="white" stroke="url(#stroke)" stroke-width="8" stroke-linejoin="round"/>

  <path d="M96 101C103.5 92.5 117 91.5 125.5 99C131.5 104.5 133 114 129.5 121.5C127 127 122 131.5 116 134.5" stroke="url(#stroke)" stroke-width="8" stroke-linecap="round"/>
  <circle cx="116" cy="145" r="5" fill="#2F65D8"/>

  <path d="M86 83L94 90" stroke="#8EB0F3" stroke-width="4" stroke-linecap="round"/>
  <path d="M77 95L86 100" stroke="#8EB0F3" stroke-width="4" stroke-linecap="round"/>
  <path d="M153 171L161 179" stroke="#8EB0F3" stroke-width="4" stroke-linecap="round"/>
</svg>
